<svg xmlns="http://www.w3.org/2000/svg" xmlns:xlink="http://www.w3.org/1999/xlink" contentStyleType="text/css" data-diagram-type="DESCRIPTION" height="750px" preserveAspectRatio="none" style="width:1189px;height:750px;background:#FFFFFF;" version="1.1" viewBox="0 0 1189 750" width="1189px" zoomAndPan="magnify"><?plantuml 1.2026.4beta2?><defs/><g><g class="title" data-source-line="1"><text fill="#000000" font-family="Arial" font-size="14" font-weight="700" lengthAdjust="spacing" textLength="294.5742" x="443.7813" y="22.9951">UniTime System Component Diagram</text></g><!--cluster Container--><g class="cluster" data-qualified-name="Container" data-source-line="15" id="ent0003"><polygon fill="#F4F1DE" points="376.49,149.0969,386.49,139.0969,812.49,139.0969,812.49,418.9869,802.49,428.9869,376.49,428.9869,376.49,149.0969" style="stroke:#181818;stroke-width:1;"/><line style="stroke:#181818;stroke-width:1;" x1="802.49" x2="812.49" y1="149.0969" y2="139.0969"/><line style="stroke:#181818;stroke-width:1;" x1="376.49" x2="802.49" y1="149.0969" y2="149.0969"/><line style="stroke:#181818;stroke-width:1;" x1="802.49" x2="802.49" y1="149.0969" y2="428.9869"/><text fill="#000000" font-family="Arial" font-size="14" font-weight="700" lengthAdjust="spacing" textLength="199.9648" x="490.5076" y="165.092">Jakarta Servlet Container</text></g><!--cluster Application Subsystems--><g class="cluster" data-qualified-name="Application Subsystems" data-source-line="24" id="ent0010"><rect fill="none" height="87.3" rx="2.5" ry="2.5" style="stroke:#181818;stroke-width:1;" width="945" x="146.49" y="452.9869"/><text fill="#000000" font-family="Arial" font-size="14" font-weight="700" lengthAdjust="spacing" textLength="189.1436" x="524.4182" y="467.982">Application Subsystems</text></g><!--entity JSP--><g class="entity" data-qualified-name="Container.JSP" data-source-line="16" id="ent0004"><rect fill="#F7F7F2" height="36.2969" rx="2.5" ry="2.5" style="stroke:#3D405B;stroke-width:0.5;" width="139.6016" x="392.69" y="179.0969"/><text fill="#000000" font-family="Arial" font-size="14" lengthAdjust="spacing" textLength="119.6016" x="402.69" y="202.092">JSP + Tiles Views</text></g><!--entity Struts--><g class="entity" data-qualified-name="Container.Struts" data-source-line="17" id="ent0005"><rect fill="#F7F7F2" height="36.2969" rx="2.5" ry="2.5" style="stroke:#3D405B;stroke-width:0.5;" width="130.9814" x="392" y="275.3969"/><text fill="#000000" font-family="Arial" font-size="14" lengthAdjust="spacing" textLength="110.9814" x="402" y="298.392">Struts 2 Actions</text></g><!--entity GWT--><g class="entity" data-qualified-name="Container.GWT" data-source-line="18" id="ent0006"><rect fill="#F7F7F2" height="36.2969" rx="2.5" ry="2.5" style="stroke:#3D405B;stroke-width:0.5;" width="120.6455" x="558.16" y="275.3969"/><text fill="#000000" font-family="Arial" font-size="14" lengthAdjust="spacing" textLength="100.6455" x="568.16" y="298.392">GWT UI + RPC</text></g><!--entity API--><g class="entity" data-qualified-name="Container.API" data-source-line="19" id="ent0007"><rect fill="#F7F7F2" height="36.2969" rx="2.5" ry="2.5" style="stroke:#3D405B;stroke-width:0.5;" width="82.6104" x="714.18" y="275.3969"/><text fill="#000000" font-family="Arial" font-size="14" lengthAdjust="spacing" textLength="62.6104" x="724.18" y="298.392">REST API</text></g><!--entity Filters--><g class="entity" data-qualified-name="Container.Filters" data-source-line="20" id="ent0008"><rect fill="#F7F7F2" height="36.2969" rx="2.5" ry="2.5" style="stroke:#3D405B;stroke-width:0.5;" width="116.9678" x="567" y="179.0969"/><text fill="#000000" font-family="Arial" font-size="14" lengthAdjust="spacing" textLength="96.9678" x="577" y="202.092">Servlet Filters</text></g><!--entity Spring--><g class="entity" data-qualified-name="Container.Spring" data-source-line="21" id="ent0009"><rect fill="#F7F7F2" height="36.2969" rx="2.5" ry="2.5" style="stroke:#3D405B;stroke-width:0.5;" width="124.7197" x="556.13" y="376.6869"/><text fill="#000000" font-family="Arial" font-size="14" lengthAdjust="spacing" textLength="104.7197" x="566.13" y="399.682">Spring Context</text></g><!--entity Course--><g class="entity" data-qualified-name="Application Subsystems.Course" data-source-line="25" id="ent0011"><rect fill="#F7F7F2" height="36.2969" rx="2.5" ry="2.5" style="stroke:#3D405B;stroke-width:0.5;" width="156.5137" x="919.23" y="487.9869"/><text fill="#000000" font-family="Arial" font-size="14" lengthAdjust="spacing" textLength="136.5137" x="929.23" y="510.982">Course Timetabling</text></g><!--entity Exam--><g class="entity" data-qualified-name="Application Subsystems.Exam" data-source-line="26" id="ent0012"><rect fill="#F7F7F2" height="36.2969" rx="2.5" ry="2.5" style="stroke:#3D405B;stroke-width:0.5;" width="146.9844" x="544.99" y="487.9869"/><text fill="#000000" font-family="Arial" font-size="14" lengthAdjust="spacing" textLength="126.9844" x="554.99" y="510.982">Exam Timetabling</text></g><!--entity Events--><g class="entity" data-qualified-name="Application Subsystems.Events" data-source-line="27" id="ent0013"><rect fill="#F7F7F2" height="36.2969" rx="2.5" ry="2.5" style="stroke:#3D405B;stroke-width:0.5;" width="156.7803" x="353.1" y="487.9869"/><text fill="#000000" font-family="Arial" font-size="14" lengthAdjust="spacing" textLength="136.7803" x="363.1" y="510.982">Event Management</text></g><!--entity Sectioning--><g class="entity" data-qualified-name="Application Subsystems.Sectioning" data-source-line="28" id="ent0014"><rect fill="#F7F7F2" height="36.2969" rx="2.5" ry="2.5" style="stroke:#3D405B;stroke-width:0.5;" width="156.9307" x="727.02" y="487.9869"/><text fill="#000000" font-family="Arial" font-size="14" lengthAdjust="spacing" textLength="136.9307" x="737.02" y="510.982">Student Scheduling</text></g><!--entity Reports--><g class="entity" data-qualified-name="Application Subsystems.Reports" data-source-line="29" id="ent0015"><rect fill="#F7F7F2" height="36.2969" rx="2.5" ry="2.5" style="stroke:#3D405B;stroke-width:0.5;" width="155.3994" x="162.79" y="487.9869"/><text fill="#000000" font-family="Arial" font-size="14" lengthAdjust="spacing" textLength="135.3994" x="172.79" y="510.982">Reports and Export</text></g><!--entity User--><g class="entity" data-qualified-name="User" data-source-line="13" id="ent0002"><ellipse cx="736.4897" cy="51.2969" fill="#F1F1F1" rx="8" ry="8" style="stroke:#181818;stroke-width:0.5;"/><path d="M736.4897,59.2969 L736.4897,86.2969 M723.4897,67.2969 L749.4897,67.2969 M736.4897,86.2969 L723.4897,101.2969 M736.4897,86.2969 L749.4897,101.2969" fill="none" style="stroke:#181818;stroke-width:0.5;"/><text fill="#000000" font-family="Arial" font-size="14" lengthAdjust="spacing" textLength="93.3994" x="689.79" y="115.792">Browser User</text></g><!--entity Security--><g class="entity" data-qualified-name="Security" data-source-line="32" id="ent0016"><rect fill="#F7F7F2" height="36.2969" rx="2.5" ry="2.5" style="stroke:#3D405B;stroke-width:0.5;" width="120.9736" x="7" y="487.9869"/><text fill="#000000" font-family="Arial" font-size="14" lengthAdjust="spacing" textLength="100.9736" x="17" y="510.982">Security Layer</text></g><!--entity ORM--><g class="entity" data-qualified-name="ORM" data-source-line="33" id="ent0017"><rect fill="#F7F7F2" height="36.2969" rx="2.5" ry="2.5" style="stroke:#3D405B;stroke-width:0.5;" width="126.5039" x="555.23" y="584.2869"/><text fill="#000000" font-family="Arial" font-size="14" lengthAdjust="spacing" textLength="106.5039" x="565.23" y="607.282">Hibernate ORM</text></g><!--entity DB--><g class="entity" data-qualified-name="DB" data-source-line="34" id="ent0018"><path d="M561.02,690.5769 C561.02,680.5769 618.4853,680.5769 618.4853,680.5769 C618.4853,680.5769 675.9507,680.5769 675.9507,690.5769 L675.9507,715.8738 C675.9507,725.8738 618.4853,725.8738 618.4853,725.8738 C618.4853,725.8738 561.02,725.8738 561.02,715.8738 L561.02,690.5769" fill="#EAF4F4" style="stroke:#181818;stroke-width:0.5;"/><path d="M561.02,690.5769 C561.02,700.5769 618.4853,700.5769 618.4853,700.5769 C618.4853,700.5769 675.9507,700.5769 675.9507,690.5769" fill="none" style="stroke:#181818;stroke-width:0.5;"/><text fill="#000000" font-family="Arial" font-size="14" lengthAdjust="spacing" textLength="94.9307" x="571.02" y="717.572">Relational DB</text></g><!--entity CPSolver--><g class="entity" data-qualified-name="CPSolver" data-source-line="35" id="ent0019"><rect fill="#F7F7F2" height="36.2969" rx="2.5" ry="2.5" style="stroke:#3D405B;stroke-width:0.5;" width="82.2139" x="743.38" y="584.2869"/><text fill="#000000" font-family="Arial" font-size="14" lengthAdjust="spacing" textLength="62.2139" x="753.38" y="607.282">CPSolver</text></g><!--entity External--><g class="entity" data-qualified-name="External" data-source-line="36" id="ent0020"><path d="M876.8802,381.6174 C880.0817,375.1372 884.8789,375.6677 888.7153,380.9802 C891.9121,374.5514 896.0259,375.5945 900.1498,380.0019 C903.6188,373.8331 908.2456,373.6312 912.4043,379.2871 C916.9539,373.4895 920.6069,374.7048 924.5538,379.95 C926.5409,374.7162 931.653,373.5465 935.36,378.0393 C938.4051,371.9623 944.3699,370.7672 948.043,377.4133 C950.5896,372.9671 955.2563,372.6674 957.5645,377.6538 C960.779,372.0457 966.0381,371.0519 969.4261,377.4828 C973.0477,371.5378 977.6089,371.5308 980.9417,377.7561 C985.1087,371.1736 991.3352,372.3584 993.8699,379.3147 C997.1827,374.3864 1000.6884,373.3403 1004.7964,378.4491 C1008.9583,372.2361 1013.5263,372.8197 1017.0988,379.0326 C1020.4394,373.582 1025.4149,373.3666 1028.1823,379.5774 C1032.2293,374.5712 1036.7691,376.3831 1039.1333,381.4135 C1047.9573,383.819 1050.1004,389.369 1044.4532,396.7834 C1050.9846,403.8611 1047.399,409.1982 1039.5845,411.5442 C1036.0925,416.8526 1030.5264,418.1495 1026.9461,411.6386 C1024.8321,416.9081 1020.6214,417.5942 1017.0922,413.0612 C1013.1951,419.938 1008.8493,421.1624 1003.7104,414.2679 C1002.0049,420.2815 996.8101,421.0245 993.3003,415.9639 C990.8397,421.798 985.23,422.4459 981.6596,417.1217 C979.7422,423.856 974.3458,424.6382 969.5116,420.3306 C966.4069,424.8816 961.7266,424.7501 958.8,420.1228 C954.3084,426.5339 950.0178,425.7876 946.1031,419.544 C941.9752,423.8614 937.9284,422.7694 936.172,417.1693 C932.4944,424.0485 927.8423,422.6393 923.7733,417.5756 C919.8916,422.2459 915.1786,420.6343 912.9346,415.7229 C908.3874,419.8474 904.4662,419.8523 901.4394,413.9754 C898.0046,419.7237 893.2561,418.8173 890.5274,413.2919 C886.4917,417.4934 881.0124,416.6381 879.0112,410.928 C868.894,411.0247 864.6137,405.2683 867.8345,395.624 C863.6888,386.8723 867.2618,381.4801 876.8802,381.6174" fill="#F1F1F1" style="stroke:#181818;stroke-width:0.5;"/><text fill="#000000" font-family="Arial" font-size="14" lengthAdjust="spacing" textLength="147.2188" x="883.88" y="399.682">External Integrations</text></g><g class="entity" data-qualified-name="GMN46" data-source-line="65" id="ent0047"><path d="M860.84,589.8669 L860.84,614.9997 A0,0 0 0 0 860.84,614.9997 L1174.1369,614.9997 A0,0 0 0 0 1174.1369,614.9997 L1174.1369,599.8669 L1164.1369,589.8669 L1018.98,589.8669 L1001.16,524.4269 L1010.98,589.8669 L860.84,589.8669 A0,0 0 0 0 860.84,589.8669" fill="#FEFFDD" style="stroke:#181818;stroke-width:0.5;"/><path d="M1164.1369,589.8669 L1164.1369,599.8669 L1174.1369,599.8669 L1164.1369,589.8669" fill="#FEFFDD" style="stroke:#181818;stroke-width:0.5;"/><text fill="#000000" font-family="Arial" font-size="13" lengthAdjust="spacing" textLength="292.2969" x="866.84" y="606.9338">SearchResultCounter affects this subsystem.</text></g><!--link User to JSP--><g class="link" data-entity-1="ent0002" data-entity-2="ent0004" data-link-type="dependency" data-source-line="38" id="lnk21"><path d="M689.39,89.1269 C650.49,96.2669 594.53,109.3469 549.49,131.0969 C523.83,143.4869 502.6799,159.9696 485.9499,174.6496" fill="none" id="User-to-JSP" style="stroke:#3D405B;stroke-width:1;"/><polygon fill="#3D405B" points="481.44,178.6069,490.8431,175.6775,485.1983,175.3091,485.5667,169.6643,481.44,178.6069" style="stroke:#3D405B;stroke-width:1;"/></g><!--link User to GWT--><g class="link" data-entity-1="ent0002" data-entity-2="ent0006" data-link-type="dependency" data-source-line="39" id="lnk22"><path d="M732.37,119.5269 C727.99,147.5369 719.13,185.8969 701.49,215.3969 C686.94,239.7069 667.2898,257.4633 648.6798,271.5033" fill="none" id="User-to-GWT" style="stroke:#3D405B;stroke-width:1;"/><polygon fill="#3D405B" points="643.89,275.1169,653.4837,272.8897,647.8815,272.1056,648.6656,266.5033,643.89,275.1169" style="stroke:#3D405B;stroke-width:1;"/></g><!--link User to API--><g class="link" data-entity-1="ent0002" data-entity-2="ent0007" data-link-type="dependency" data-source-line="40" id="lnk23"><path d="M758.68,119.5869 C760.22,123.3869 761.53,127.2569 762.49,131.0969 C775.19,182.2869 766.6518,239.4764 760.5918,269.3764" fill="none" id="User-to-API" style="stroke:#3D405B;stroke-width:1;"/><polygon fill="#3D405B" points="759.4,275.2569,765.108,267.2308,760.3932,270.3565,757.2674,265.6417,759.4,275.2569" style="stroke:#3D405B;stroke-width:1;"/></g><!--link Filters to Struts--><g class="link" data-entity-1="ent0008" data-entity-2="ent0005" data-link-type="dependency" data-source-line="41" id="lnk24"><path d="M594.28,215.7569 C564.2,232.6469 524.1626,255.1209 494.0426,272.0209" fill="none" id="Filters-to-Struts" style="stroke:#3D405B;stroke-width:1;"/><polygon fill="#3D405B" points="488.81,274.9569,498.6162,274.0413,493.1705,272.5102,494.7016,267.0645,488.81,274.9569" style="stroke:#3D405B;stroke-width:1;"/></g><!--link Filters to GWT--><g class="link" data-entity-1="ent0008" data-entity-2="ent0006" data-link-type="dependency" data-source-line="42" id="lnk25"><path d="M624.2,215.5369 C622.95,232.4469 621.494,252.0733 620.234,269.0533" fill="none" id="Filters-to-GWT" style="stroke:#3D405B;stroke-width:1;"/><polygon fill="#3D405B" points="619.79,275.0369,624.445,266.3576,620.16,270.0506,616.467,265.7655,619.79,275.0369" style="stroke:#3D405B;stroke-width:1;"/></g><!--link Filters to API--><g class="link" data-entity-1="ent0008" data-entity-2="ent0007" data-link-type="dependency" data-source-line="43" id="lnk26"><path d="M649.63,215.7569 C672.98,232.6969 703.3024,254.695 726.6124,271.595" fill="none" id="Filters-to-API" style="stroke:#3D405B;stroke-width:1;"/><polygon fill="#3D405B" points="731.47,275.1169,726.5314,266.5957,727.422,272.182,721.8357,273.0725,731.47,275.1169" style="stroke:#3D405B;stroke-width:1;"/></g><!--link Struts to Spring--><g class="link" data-entity-1="ent0005" data-entity-2="ent0009" data-link-type="dependency" data-source-line="44" id="lnk27"><path d="M485.9,312.0669 C515.24,330.1569 555.6435,355.0767 584.9835,373.1767" fill="none" id="Struts-to-Spring" style="stroke:#3D405B;stroke-width:1;"/><polygon fill="#3D405B" points="590.09,376.3269,584.5304,368.1972,585.8346,373.7017,580.3301,375.0059,590.09,376.3269" style="stroke:#3D405B;stroke-width:1;"/></g><!--link GWT to Spring--><g class="link" data-entity-1="ent0006" data-entity-2="ent0009" data-link-type="dependency" data-source-line="45" id="lnk28"><path d="M618.49,311.8369 C618.49,329.9469 618.49,352.2469 618.49,370.4069" fill="none" id="GWT-to-Spring" style="stroke:#3D405B;stroke-width:1;"/><polygon fill="#3D405B" points="618.49,376.4069,622.49,367.4069,618.49,371.4069,614.49,367.4069,618.49,376.4069" style="stroke:#3D405B;stroke-width:1;"/></g><!--link API to Spring--><g class="link" data-entity-1="ent0007" data-entity-2="ent0009" data-link-type="dependency" data-source-line="46" id="lnk29"><path d="M731.31,312.0669 C706.27,330.2169 672.2391,354.8871 647.2791,372.9671" fill="none" id="API-to-Spring" style="stroke:#3D405B;stroke-width:1;"/><polygon fill="#3D405B" points="642.42,376.4869,652.0552,374.4467,646.4693,373.5537,647.3622,367.9678,642.42,376.4869" style="stroke:#3D405B;stroke-width:1;"/></g><!--link Spring to Security--><g class="link" data-entity-1="ent0009" data-entity-2="ent0016" data-link-type="dependency" data-source-line="47" id="lnk30"><path d="M555.93,398.1669 C445.19,402.9769 219.44,416.0769 146.49,444.9869 C122.45,454.5069 103.8193,469.4042 88.8993,483.5142" fill="none" id="Spring-to-Security" style="stroke:#3D405B;stroke-width:1;"/><polygon fill="#3D405B" points="84.54,487.6369,93.8274,484.3591,88.1728,484.2013,88.3305,478.5467,84.54,487.6369" style="stroke:#3D405B;stroke-width:1;"/></g><!--link Spring to Course--><g class="link" data-entity-1="ent0009" data-entity-2="ent0011" data-link-type="dependency" data-source-line="48" id="lnk31"><path d="M681.24,407.2069 C728.11,415.6269 793.76,427.2769 851.49,436.9869 C873.68,440.7169 880.42,437.0769 901.49,444.9869 C928.74,455.2169 951.7474,470.1572 970.3774,483.9472" fill="none" id="Spring-to-Course" style="stroke:#3D405B;stroke-width:1;"/><polygon fill="#3D405B" points="975.2,487.5169,970.3459,478.9473,971.1812,484.5421,965.5863,485.3774,975.2,487.5169" style="stroke:#3D405B;stroke-width:1;"/></g><!--link Spring to Exam--><g class="link" data-entity-1="ent0009" data-entity-2="ent0012" data-link-type="dependency" data-source-line="49" id="lnk32"><path d="M618.49,413.3969 C618.49,433.7969 618.49,461.2369 618.49,481.6169" fill="none" id="Spring-to-Exam" style="stroke:#3D405B;stroke-width:1;"/><polygon fill="#3D405B" points="618.49,487.6169,622.49,478.6169,618.49,482.6169,614.49,478.6169,618.49,487.6169" style="stroke:#3D405B;stroke-width:1;"/></g><!--link Spring to Events--><g class="link" data-entity-1="ent0009" data-entity-2="ent0013" data-link-type="dependency" data-source-line="50" id="lnk33"><path d="M584.92,413.3069 C567.62,422.4769 546.26,434.0469 527.49,444.9869 C503.86,458.7469 482.639,472.0553 463.559,484.3053" fill="none" id="Spring-to-Events" style="stroke:#3D405B;stroke-width:1;"/><polygon fill="#3D405B" points="458.51,487.5469,468.2445,486.0504,462.7175,484.8455,463.9224,479.3185,458.51,487.5469" style="stroke:#3D405B;stroke-width:1;"/></g><!--link Spring to Sectioning--><g class="link" data-entity-1="ent0009" data-entity-2="ent0014" data-link-type="dependency" data-source-line="51" id="lnk34"><path d="M652.05,413.3069 C669.36,422.4769 690.71,434.0469 709.49,444.9869 C733.11,458.7469 754.331,472.0553 773.411,484.3053" fill="none" id="Spring-to-Sectioning" style="stroke:#3D405B;stroke-width:1;"/><polygon fill="#3D405B" points="778.46,487.5469,773.0476,479.3185,774.2525,484.8455,768.7255,486.0504,778.46,487.5469" style="stroke:#3D405B;stroke-width:1;"/></g><!--link Course to ORM--><g class="link" data-entity-1="ent0011" data-entity-2="ent0017" data-link-type="dependency" data-source-line="52" id="lnk35"><path d="M961.72,524.6869 C943.95,532.8269 921.96,542.0569 901.49,548.2869 C861.43,560.4669 758.5592,578.4753 688.1292,590.1553" fill="none" id="Course-to-ORM" style="stroke:#3D405B;stroke-width:1;"/><polygon fill="#3D405B" points="682.21,591.1369,691.7432,593.6105,687.1426,590.3189,690.4343,585.7183,682.21,591.1369" style="stroke:#3D405B;stroke-width:1;"/></g><!--link Exam to ORM--><g class="link" data-entity-1="ent0012" data-entity-2="ent0017" data-link-type="dependency" data-source-line="53" id="lnk36"><path d="M618.49,524.4269 C618.49,541.3369 618.49,560.9469 618.49,577.9269" fill="none" id="Exam-to-ORM" style="stroke:#3D405B;stroke-width:1;"/><polygon fill="#3D405B" points="618.49,583.9269,622.49,574.9269,618.49,578.9269,614.49,574.9269,618.49,583.9269" style="stroke:#3D405B;stroke-width:1;"/></g><!--link Events to ORM--><g class="link" data-entity-1="ent0013" data-entity-2="ent0017" data-link-type="dependency" data-source-line="54" id="lnk37"><path d="M466.22,524.6469 C499.7,541.5369 544.7321,564.2463 578.2621,581.1463" fill="none" id="Events-to-ORM" style="stroke:#3D405B;stroke-width:1;"/><polygon fill="#3D405B" points="583.62,583.8469,577.3835,576.2241,579.1551,581.5964,573.7828,583.368,583.62,583.8469" style="stroke:#3D405B;stroke-width:1;"/></g><!--link Sectioning to ORM--><g class="link" data-entity-1="ent0014" data-entity-2="ent0017" data-link-type="dependency" data-source-line="55" id="lnk38"><path d="M770.75,524.6469 C737.27,541.5369 692.2379,564.2463 658.7079,581.1463" fill="none" id="Sectioning-to-ORM" style="stroke:#3D405B;stroke-width:1;"/><polygon fill="#3D405B" points="653.35,583.8469,663.1872,583.368,657.8149,581.5964,659.5865,576.2241,653.35,583.8469" style="stroke:#3D405B;stroke-width:1;"/></g><!--link Reports to ORM--><g class="link" data-entity-1="ent0015" data-entity-2="ent0017" data-link-type="dependency" data-source-line="56" id="lnk39"><path d="M275.86,524.6969 C293.44,532.8469 315.21,542.0769 335.49,548.2869 C409.22,570.8669 490.8975,584.6981 548.9075,592.7881" fill="none" id="Reports-to-ORM" style="stroke:#3D405B;stroke-width:1;"/><polygon fill="#3D405B" points="554.85,593.6169,546.4888,588.4121,549.8979,592.9263,545.3838,596.3354,554.85,593.6169" style="stroke:#3D405B;stroke-width:1;"/></g><!--link ORM to DB--><g class="link" data-entity-1="ent0017" data-entity-2="ent0018" data-link-type="dependency" data-source-line="57" id="lnk40"><path d="M618.49,620.6369 C618.49,637.2269 618.49,656.3869 618.49,674.3769" fill="none" id="ORM-to-DB" style="stroke:#3D405B;stroke-width:1;"/><polygon fill="#3D405B" points="618.49,680.3769,622.49,671.3769,618.49,675.3769,614.49,671.3769,618.49,680.3769" style="stroke:#3D405B;stroke-width:1;"/></g><!--link Course to CPSolver--><g class="link" data-entity-1="ent0011" data-entity-2="ent0019" data-link-type="dependency" data-source-line="58" id="lnk41"><path d="M957.92,524.6469 C919.78,541.5369 867.8768,564.5188 829.6868,581.4188" fill="none" id="Course-to-CPSolver" style="stroke:#3D405B;stroke-width:1;"/><polygon fill="#3D405B" points="824.2,583.8469,834.0488,583.8627,828.7723,581.8235,830.8115,576.547,824.2,583.8469" style="stroke:#3D405B;stroke-width:1;"/></g><!--link Exam to CPSolver--><g class="link" data-entity-1="ent0012" data-entity-2="ent0019" data-link-type="dependency" data-source-line="59" id="lnk42"><path d="M649.32,524.6469 C679.04,541.5369 718.5521,563.9848 748.3221,580.8848" fill="none" id="Exam-to-CPSolver" style="stroke:#3D405B;stroke-width:1;"/><polygon fill="#3D405B" points="753.54,583.8469,747.688,575.9252,749.1918,581.3785,743.7385,582.8823,753.54,583.8469" style="stroke:#3D405B;stroke-width:1;"/></g><!--link Sectioning to CPSolver--><g class="link" data-entity-1="ent0014" data-entity-2="ent0019" data-link-type="dependency" data-source-line="60" id="lnk43"><path d="M801.64,524.4269 C797.87,541.3369 793.4738,561.0902 789.6938,578.0702" fill="none" id="Sectioning-to-CPSolver" style="stroke:#3D405B;stroke-width:1;"/><polygon fill="#3D405B" points="788.39,583.9269,794.2501,576.0111,789.4765,579.0463,786.4412,574.2727,788.39,583.9269" style="stroke:#3D405B;stroke-width:1;"/></g><!--link External to Course--><g class="link" data-entity-1="ent0020" data-entity-2="ent0011" data-link-type="dependency" data-source-line="61" id="lnk44"><path d="M965.77,418.4869 C973.28,438.9969 982.1168,463.1528 988.9868,481.9128" fill="none" id="External-to-Course" style="stroke:#3D405B;stroke-width:1;"/><polygon fill="#3D405B" points="991.05,487.5469,991.7112,477.7202,989.3306,482.8518,984.1991,480.4712,991.05,487.5469" style="stroke:#3D405B;stroke-width:1;"/></g><!--link External to Sectioning--><g class="link" data-entity-1="ent0020" data-entity-2="ent0014" data-link-type="dependency" data-source-line="62" id="lnk45"><path d="M925.99,418.4869 C897.47,438.9969 860.912,465.285 834.812,484.045" fill="none" id="External-to-Sectioning" style="stroke:#3D405B;stroke-width:1;"/><polygon fill="#3D405B" points="829.94,487.5469,839.5827,485.5421,834,484.6286,834.9135,479.046,829.94,487.5469" style="stroke:#3D405B;stroke-width:1;"/></g><?plantuml-src XLJVRzCm47xtNt4gZsW8nX1lIFq9GsnKJGVFr-JQMdFjo7OsAiJ_pjbnKYSJebMRk---EzjtN-obLmGFMcxbYQ0uEqydc9jJRJHf3mk91uiduHwbhf4jABjOuS-SQQdqg0-ACeexOcMUfJx07fNB8pMMZtYWVwTMjCT6-PNH_XvvGrChKMNn6HSuMDFeQcwKiV1g5JyPOsgjUKx1zukRjnzcMR0_sCpOYkp_QI-M-yZVwuowG8yxTFI2kPokRbOt6VFUL2zPp7ctM0g1fMTtCkEzExBmm7yJG1SD8JIdmkGhFgBr20NP9qMUTwazIfsOlGU_1Locn6d56bx3LYfoy4FIiujqHeUqmjl6ExY6QUcbqIsh1OV4pp-ty73B9JVhUIGnC6HibiKMfklR6ENdQA6q_PLKdcoxJh97nDe63OM3qI_VxYT2ueyGIKamcTQraYM6FKFHx5nKC5STTM5k6ki8WifvO8ghfAu5U4XT_k9fZOa17D6UmkCEDM_Zn6PB2-3u7BwfWb6KHwgQlc91iT7XFCFkKMqiJm9rnQi6Ez8J7Cu-Q6RPMEdFy0tFIGWTbDE-o1rPZPxW--OkilWfggJTiAQA7KG5YrcCBsPv_dnT6FNKAIqvebIcgKA_V2Yku9O7nRV5HJvTH8YWOxYw-XHrrpj1ERqJX99q4FsalHmA_DmFAKctCQDLHn1evZ8fTvEg8j9rAiEI838aJZxtsn4FwtIJJ38BQEXmb5BlnCJUlMJrK3VwpkTVj7aOMU6-_ttr7XdLp9XfHDaH1rXs1BvjM2SxuxqvWTbVNf62q9R73Jc-e1daOLl0_Pup7VYZTE2wr--D81PlgFCN?></g></svg>